<?xml version="1.0" encoding="UTF-8"?>
<svg id="Capa_2" xmlns="http://www.w3.org/2000/svg" viewBox="0 0 222.11 63.62">
  <defs>
    <style>
      .cls-1 {
        fill: #0f0f0e;
      }
    </style>
  </defs>
  <g id="info">
    <g>
      <path class="cls-1" d="M28.32,24.48l.32,4.61h4.59v-15.02h-15.54v4.55l5.93.41c-1.51,2.31-4.24,3.86-7.37,3.86-4.75,0-8.61-3.56-8.61-7.94s3.86-7.94,8.61-7.94c2.8,0,5.28,1.24,6.86,3.16h8C29,4.26,23.13,0,16.24,0,7.59,0,.55,6.71.55,14.95s7.04,14.95,15.69,14.95c4.85,0,9.2-2.11,12.08-5.42Z"/>
      <path class="cls-1" d="M49.45.91h14.52l13.51,28.03h-10.33l-2.46-5.25h-15.96l-2.46,5.25h-10.33L49.45.91ZM56.31,7.47l-4.66,9.95h10.12l-4.66-9.95h-.8Z"/>
      <path class="cls-1" d="M108.85,14.75c3.09.8,5.42,3.6,5.42,6.99,0,4.91-4.19,7.2-8.09,7.2h-25.66V.91h22.1c3.98,0,10.16.97,10.16,7.37,0,2.75-1.61,4.91-3.94,5.93v.55ZM90.14,7.47v4.57h10.67c1.74,0,2.63-1.02,2.63-2.29,0-1.44-1.06-2.29-2.63-2.29h-10.67ZM90.14,22.37h11.43c2.07,0,3.09-1.19,3.09-2.63,0-1.69-1.23-2.67-3.09-2.67h-11.43v5.29Z"/>
      <path class="cls-1" d="M154.03,14.75c0,7.83-5.84,15.07-18.63,15.07s-18.63-7.24-18.63-15.07S122.61.02,135.4.02s18.63,6.86,18.63,14.73ZM144.25,14.75c0-3.51-1.1-8.17-8.85-8.17s-8.85,4.66-8.85,8.17,1.1,8.51,8.85,8.51,8.85-5,8.85-8.51Z"/>
      <path class="cls-1" d="M63.3,35.59h14.52l13.51,28.03h-10.33l-2.46-5.25h-15.96l-2.46,5.25h-10.33l13.51-28.03ZM70.16,42.15l-4.66,9.95h10.12l-4.66-9.95h-.8Z"/>
      <path class="cls-1" d="M144.76,63.62v-20.87h-13.13v-7.16h35.86v7.16h-13.13v20.87h-9.61"/>
      <rect class="cls-1" x="171.98" y="35.59" width="9.61" height="28.03"/>
      <path class="cls-1" d="M127.05,57.5c-1.11-2.38-2.29-3.61-3.85-4.18v-.74c3.17-1.06,5.51-4.17,5.51-8.03,0-5.25-3.68-8.97-11.69-8.97h-22.51v28.03h9.61v-9.45h8.5c2.32,0,3.52.6,4.2,2.24l3,7.21h10.33l-3.1-6.12ZM115.36,47.76h-11.25v-5.62h11.25c2.27,0,3.39,1.15,3.39,2.83s-1.12,2.79-3.39,2.79Z"/>
      <polygon class="cls-1" points="171.98 33.38 181.59 30.47 181.59 26.03 171.98 28.94 171.98 33.38"/>
      <polygon class="cls-1" points="30.1 35.59 23.75 51.51 22.95 51.51 16.64 35.59 0 35.59 0 63.62 9.31 63.62 9.31 44.14 9.27 44.14 8.47 41.12 8.84 41.12 10.08 44.14 10.08 44.14 18.12 63.62 28.62 63.62 36.62 44.14 37.87 41.12 38.23 41.12 37.43 44.14 37.43 63.62 46.7 63.62 46.7 35.59 30.1 35.59"/>
      <polygon class="cls-1" points="212.8 35.59 212.8 53.63 211.99 53.63 201.58 35.59 185.95 35.59 185.95 63.62 195.27 63.62 195.27 44.14 195.27 44.14 195.27 40.99 195.71 40.99 196.03 44.14 207.08 63.62 222.11 63.62 222.11 35.59 212.8 35.59"/>
    </g>
  </g>
</svg>