<?xml version="1.0" encoding="UTF-8"?>
<svg id="Capa_2" xmlns="http://www.w3.org/2000/svg" viewBox="0 0 421.97 40.82">
  <defs>
    <style>
      .cls-1 {
        fill: #0f0f0e;
      }
    </style>
  </defs>
  <g id="info">
    <g>
      <path class="cls-1" d="M53.4,10.14h15.41l14.33,29.73h-10.96l-2.61-5.57h-16.93l-2.61,5.57h-10.96l14.33-29.73ZM60.68,17.1l-4.94,10.56h10.73l-4.94-10.56h-.85Z"/>
      <path class="cls-1" d="M116.42,24.83c3.28.85,5.75,3.82,5.75,7.41,0,5.21-4.45,7.64-8.58,7.64h-27.22V10.14h23.45c4.22,0,10.78,1.03,10.78,7.82,0,2.92-1.71,5.21-4.18,6.29v.58ZM96.57,17.1v4.85h11.32c1.84,0,2.78-1.08,2.78-2.43,0-1.53-1.12-2.43-2.78-2.43h-11.32ZM96.57,32.91h12.13c2.2,0,3.28-1.26,3.28-2.78,0-1.8-1.3-2.83-3.28-2.83h-12.13v5.61Z"/>
      <path class="cls-1" d="M164.34,24.83c0,8.31-6.2,15.99-19.76,15.99s-19.76-7.68-19.76-15.99,6.2-15.63,19.76-15.63,19.76,7.28,19.76,15.63ZM153.97,24.83c0-3.73-1.17-8.67-9.39-8.67s-9.39,4.94-9.39,8.67,1.17,9.03,9.39,9.03,9.39-5.3,9.39-9.03Z"/>
      <path class="cls-1" d="M253.49,10.14h15.41l14.33,29.73h-10.96l-2.61-5.57h-16.93l-2.61,5.57h-10.96l14.33-29.73ZM260.77,17.1l-4.94,10.56h10.73l-4.94-10.56h-.85Z"/>
      <path class="cls-1" d="M364.03,10.14v7.59h-13.92v22.14h-10.2v-22.14h-13.92v-7.59h38.04Z"/>
      <rect class="cls-1" x="368.79" y="10.14" width="10.2" height="29.73"/>
      <path class="cls-1" d="M321.13,33.39c-1.18-2.52-2.43-3.83-4.09-4.43v-.78c3.36-1.13,5.84-4.42,5.84-8.52,0-5.56-3.91-9.51-12.4-9.51h-23.88v29.73h10.2v-10.02h9.01c2.46,0,3.74.64,4.46,2.38l3.19,7.65h10.96l-3.28-6.49ZM308.72,23.05h-11.93v-5.96h11.93c2.41,0,3.59,1.22,3.59,3s-1.19,2.96-3.59,2.96Z"/>
      <polygon class="cls-1" points="368.79 7.8 378.98 4.72 378.98 0 368.79 3.08 368.79 7.8"/>
      <polygon class="cls-1" points="218.28 10.14 211.55 27.03 210.69 27.03 204 10.14 186.35 10.14 186.35 39.88 196.23 39.88 196.23 19.22 196.19 19.22 195.33 16.01 195.72 16.01 197.04 19.22 197.04 19.22 205.57 39.88 216.71 39.88 225.2 19.22 226.52 16.01 226.9 16.01 226.05 19.22 226.05 39.88 235.89 39.88 235.89 10.14 218.28 10.14"/>
      <polygon class="cls-1" points="412.09 10.14 412.09 29.28 411.23 29.28 400.18 10.14 383.61 10.14 383.61 39.88 393.49 39.88 393.49 15.87 393.96 15.87 394.3 19.22 406.02 39.88 421.97 39.88 421.97 10.14 412.09 10.14"/>
      <path class="cls-1" d="M30.61,34.67l.35,5.08h5.06v-16.56h-17.14v5.01l6.54.46c-1.66,2.54-4.68,4.25-8.13,4.25-5.23,0-9.49-3.92-9.49-8.75s4.26-8.75,9.49-8.75c3.09,0,5.82,1.37,7.56,3.48h8.82c-2.31-6.51-8.78-11.21-16.38-11.21C7.76,7.69,0,15.08,0,24.17s7.76,16.48,17.29,16.48c5.35,0,10.14-2.33,13.32-5.98Z"/>
    </g>
  </g>
</svg>